<?xml version="1.0" encoding="utf-8"?>
<svg width="24px" height="24px" viewbox="0 0 24 24" version="1.1" xmlns:xlink="http://www.w3.org/1999/xlink" xmlns="http://www.w3.org/2000/svg">
  <g id="logo--instagram-copy-4">
    <path d="M1.08 2.16C1.67647 2.16 2.16 1.67647 2.16 1.08C2.16 0.483532 1.67647 0 1.08 0C0.483532 0 0 0.483532 0 1.08C0 1.67647 0.483532 2.16 1.08 2.16Z" transform="translate(15.7242 6.1158)" id="Oval" fill="#000000" fill-rule="evenodd" stroke="none" />
    <path d="M4.62165 0C2.06918 0 1.33227e-15 2.06918 0 4.62165C-1.33227e-15 7.17412 2.06918 9.2433 4.62165 9.2433C7.17412 9.2433 9.2433 7.17412 9.2433 4.62165C9.2433 2.06918 7.17412 3.9968e-15 4.62165 2.66454e-15L4.62165 0ZM4.62165 7.62165C2.9648 7.62165 1.62165 6.2785 1.62165 4.62165C1.62165 2.9648 2.9648 1.62165 4.62165 1.62165C6.2785 1.62165 7.62165 2.9648 7.62165 4.62165C7.62165 5.4173 7.30558 6.18036 6.74297 6.74297C6.18036 7.30558 5.4173 7.62165 4.62165 7.62165Z" transform="translate(7.37835 7.37835)" id="Shape" fill="#000000" stroke="none" />
    <path d="M9 1.62165C11.4031 1.62165 11.6878 1.6308 12.6368 1.67415C13.2075 1.68094 13.7728 1.78577 14.308 1.98405C15.0928 2.2869 15.7132 2.90725 16.016 3.6921C16.2143 4.22731 16.3191 4.79261 16.3259 5.36333C16.3692 6.3123 16.3784 6.597 16.3784 9.00008C16.3784 11.4032 16.3693 11.6878 16.3259 12.6368C16.3191 13.2075 16.2143 13.7728 16.016 14.3081C15.7132 15.0929 15.0928 15.7133 14.308 16.0161C13.7728 16.2144 13.2075 16.3192 12.6368 16.326C11.6879 16.3693 11.4033 16.3785 9 16.3785C6.5967 16.3785 6.31215 16.3693 5.36325 16.326C4.79253 16.3192 4.22723 16.2144 3.69202 16.0161C2.90718 15.7133 2.28682 15.0929 1.98397 14.3081C1.78569 13.7728 1.68087 13.2075 1.67408 12.6368C1.6308 11.6878 1.62157 11.4032 1.62157 9.00008C1.62157 6.597 1.63073 6.3123 1.67408 5.36333C1.68087 4.79261 1.78569 4.22731 1.98397 3.6921C2.2868 2.90722 2.90716 2.28684 3.69202 1.98397C4.22723 1.78569 4.79253 1.68087 5.36325 1.67408C6.31222 1.6308 6.59692 1.62157 9 1.62157M9 0C6.55575 0 6.24923 0.01035 5.2893 0.05415C4.54279 0.0691373 3.80422 0.210592 3.105 0.4725C1.8959 0.940074 0.940074 1.8959 0.4725 3.105C0.21055 3.80434 0.0690951 4.54304 0.05415 5.28968C0.01035 6.24923 0 6.55575 0 9C0 11.4443 0.01035 11.7508 0.05415 12.7107C0.0691037 13.4573 0.210559 14.196 0.4725 14.8954C0.940074 16.1045 1.8959 17.0603 3.105 17.5279C3.80434 17.7898 4.54304 17.9313 5.28968 17.9462C6.24923 17.9897 6.55575 18 9 18C11.4443 18 11.7508 17.9897 12.7107 17.9459C13.4573 17.9309 14.196 17.7894 14.8954 17.5275C16.1045 17.0599 17.0603 16.1041 17.5279 14.895C17.7898 14.1957 17.9313 13.457 17.9462 12.7103C17.9897 11.7508 18 11.4443 18 9C18 6.55575 17.9897 6.24923 17.9459 5.2893C17.9309 4.54279 17.7894 3.80422 17.5275 3.105C17.0598 1.89604 16.104 0.940364 14.895 0.472875C14.1957 0.210934 13.457 0.0694787 12.7103 0.054525C11.7508 0.01035 11.4443 0 9 0Z" transform="translate(3 3)" id="Shape" fill="#000000" stroke="none" />
    <path d="M0 0L24 0L24 24L0 24L0 0Z" id="_Transparent_Rectangle_" fill="none" fill-rule="evenodd" stroke="none" />
  </g>
</svg>