<?xml version="1.0" encoding="utf-8"?>
<svg width="18px" height="18px" viewbox="0 0 18 18" version="1.1" xmlns:xlink="http://www.w3.org/1999/xlink" xmlns="http://www.w3.org/2000/svg">
  <g id="Group-4" transform="translate(0.75 0.75)">
    <path d="M2.9952 6.7328C2.9952 6.54507 3.01653 6.37227 3.0592 6.2144C3.10187 6.05653 3.1744 5.89867 3.2768 5.7408C3.3792 5.58293 3.5136 5.4144 3.68 5.2352C3.8464 5.056 4.05333 4.8512 4.3008 4.6208C4.82133 4.1344 5.18827 3.70987 5.4016 3.3472C5.61493 2.98453 5.7216 2.6112 5.7216 2.2272C5.7216 1.90293 5.64693 1.60427 5.4976 1.3312C5.34827 1.05813 5.1392 0.823467 4.8704 0.6272C4.6016 0.430933 4.27947 0.277333 3.904 0.1664C3.52853 0.0554667 3.11467 0 2.6624 0C2.28693 0 1.93707 0.0512 1.6128 0.1536C1.28853 0.256 1.00693 0.394667 0.768 0.5696C0.529067 0.744533 0.341333 0.951467 0.2048 1.1904C0.0682667 1.42933 0 1.68533 0 1.9584C0 2.14613 0.0277333 2.32533 0.0832 2.496C0.138667 2.66667 0.213333 2.816 0.3072 2.944C0.401067 3.072 0.516267 3.17227 0.6528 3.2448C0.789333 3.31733 0.938667 3.3536 1.1008 3.3536C1.42507 3.3536 1.6832 3.26187 1.8752 3.0784C2.0672 2.89493 2.1632 2.68373 2.1632 2.4448C2.1632 2.25707 2.11413 2.08 2.016 1.9136C1.91787 1.7472 1.78347 1.61707 1.6128 1.5232C1.6128 1.35253 1.70667 1.20533 1.8944 1.0816C2.08213 0.957867 2.29973 0.896 2.5472 0.896C3.0336 0.896 3.4048 1.0176 3.6608 1.2608C3.9168 1.504 4.0448 1.85173 4.0448 2.304C4.0448 2.64533 3.9808 2.95253 3.8528 3.2256C3.7248 3.49867 3.51147 3.78453 3.2128 4.0832C2.9568 4.3392 2.74347 4.57173 2.5728 4.7808C2.40213 4.98987 2.26773 5.1968 2.1696 5.4016C2.07147 5.6064 2.00107 5.81547 1.9584 6.0288C1.91573 6.24213 1.8944 6.4768 1.8944 6.7328L1.8944 6.7328L2.9952 6.7328ZM2.4448 9.6768C2.76907 9.6768 3.0208 9.5872 3.2 9.408C3.3792 9.2288 3.4688 8.9856 3.4688 8.6784C3.4688 8.3712 3.37707 8.12373 3.1936 7.936C3.01013 7.74827 2.7648 7.6544 2.4576 7.6544C2.1504 7.6544 1.9072 7.74613 1.728 7.9296C1.5488 8.11307 1.4592 8.36693 1.4592 8.6912C1.4592 9.00693 1.54667 9.25013 1.7216 9.4208C1.89653 9.59147 2.1376 9.6768 2.4448 9.6768Z" transform="translate(4.8817024 2.9041026)" id="?" fill="#31926F" stroke="none" />
    <path d="M7.7425 15.485C12.0186 15.485 15.485 12.0186 15.485 7.7425C15.485 3.46644 12.0186 0 7.7425 0C3.46644 0 0 3.46644 0 7.7425C0 12.0186 3.46644 15.485 7.7425 15.485Z" id="Oval" fill="none" fill-rule="evenodd" stroke="#31926F" stroke-width="1.5" />
  </g>
</svg>