<?xml version="1.0" encoding="utf-8"?>
<svg width="1280px" height="14px" viewbox="0 0 1280 14" version="1.1" xmlns:xlink="http://www.w3.org/1999/xlink" xmlns="http://www.w3.org/2000/svg">
  <g id="Group-4-Copy-4" transform="translate(0 1.5)">
    <path d="M18.0282 0L9.01408 9.01408L0 2.34479e-12L18.0282 0Z" transform="translate(1135.7747 1.5007825)" id="Path-Copy" fill="#AFCDB4" fill-rule="evenodd" stroke="none" />
    <path d="M18.0282 0L9.01408 9.01408L0 2.34479e-12L18.0282 0Z" transform="translate(847.3239 1.5007825)" id="Path-Copy-17" fill="#AFCDB4" fill-rule="evenodd" stroke="none" />
    <path d="M18.0282 0L9.01408 9.01408L0 2.34479e-12L18.0282 0Z" transform="translate(558.8732 1.5007825)" id="Path-Copy-33" fill="#AFCDB4" fill-rule="evenodd" stroke="none" />
    <path d="M18.0282 0L9.01408 9.01408L0 2.34479e-12L18.0282 0Z" transform="translate(991.5493 1.5007825)" id="Path-Copy-9" fill="#AFCDB4" fill-rule="evenodd" stroke="none" />
    <path d="M18.0282 0L9.01408 9.01408L0 2.34479e-12L18.0282 0Z" transform="translate(703.0986 1.5007825)" id="Path-Copy-18" fill="#AFCDB4" fill-rule="evenodd" stroke="none" />
    <path d="M18.0282 0L9.01408 9.01408L0 2.34479e-12L18.0282 0Z" transform="translate(414.6479 1.5007825)" id="Path-Copy-34" fill="#AFCDB4" fill-rule="evenodd" stroke="none" />
    <path d="M18.0282 0L9.01408 9.01408L0 2.34479e-12L18.0282 0Z" transform="translate(342.53522 1.5007825)" id="Path-Copy-49" fill="#AFCDB4" fill-rule="evenodd" stroke="none" />
    <g id="Group-6" transform="matrix(1 0 0 -1 -9.094947E-13 10.514867)">
      <path d="M18.0282 0L9.01408 9.01408L0 2.34479e-12L18.0282 0Z" transform="matrix(1 0 0 -1 198.30986 9.014085)" id="Path-Copy" fill="#AFCDB4" fill-rule="evenodd" stroke="none" />
      <path d="M18.0282 0L9.01408 9.01408L0 2.34479e-12L18.0282 0Z" transform="matrix(1 0 0 -1 54.084507 9.014085)" id="Path-Copy-9" fill="#AFCDB4" fill-rule="evenodd" stroke="none" />
      <path d="M18.0282 0L9.01408 9.01408L0 2.34479e-12L18.0282 0Z" transform="matrix(1 0 0 -1 234.3662 9.014085)" id="Path-Copy-3" fill="#AFCDB4" fill-rule="evenodd" stroke="none" />
      <path d="M18.0282 0L9.01408 9.01408L0 2.34479e-12L18.0282 0Z" transform="matrix(1 0 0 -1 90.14085 9.014085)" id="Path-Copy-10" fill="#AFCDB4" fill-rule="evenodd" stroke="none" />
      <path d="M18.0282 0L9.01408 9.01408L0 2.34479e-12L18.0282 0Z" transform="matrix(1 0 0 -1 270.42255 9.014085)" id="Path-Copy-5" fill="#AFCDB4" fill-rule="evenodd" stroke="none" />
      <path d="M18.0282 0L9.01408 9.01408L0 2.34479e-12L18.0282 0Z" transform="matrix(1 0 0 -1 126.19718 9.014085)" id="Path-Copy-11" fill="#AFCDB4" fill-rule="evenodd" stroke="none" />
      <path d="M18.0282 0L9.01408 9.01408L0 2.34479e-12L18.0282 0Z" transform="matrix(1 0 0 -1 306.47888 9.014085)" id="Path-Copy-7" fill="#AFCDB4" fill-rule="evenodd" stroke="none" />
      <path d="M18.0282 0L9.01408 9.01408L0 2.34479e-12L18.0282 0Z" transform="matrix(1 0 0 -1 18.02817 9.014085)" id="Path-Copy-23" fill="#AFCDB4" fill-rule="evenodd" stroke="none" />
      <path d="M18.0282 0L9.01408 9.01408L0 2.34479e-12L18.0282 0Z" transform="matrix(1 0 0 -1 162.25352 9.014085)" id="Path-Copy-12" fill="#AFCDB4" fill-rule="evenodd" stroke="none" />
      <path d="M18.0282 0L9.01408 9.01408L0 2.34479e-12L18.0282 0Z" transform="matrix(1 0 0 -1 216.33803 9.014085)" id="Path-Copy-2" fill="#AFCDB4" fill-rule="evenodd" stroke="none" />
      <path d="M18.0282 0L9.01408 9.01408L0 2.34479e-12L18.0282 0Z" transform="matrix(1 0 0 -1 72.11268 9.014085)" id="Path-Copy-13" fill="#AFCDB4" fill-rule="evenodd" stroke="none" />
      <path d="M18.0282 0L9.01408 9.01408L0 2.34479e-12L18.0282 0Z" transform="matrix(1 0 0 -1 252.39436 9.014085)" id="Path-Copy-4" fill="#AFCDB4" fill-rule="evenodd" stroke="none" />
      <path d="M18.0282 0L9.01408 9.01408L0 2.34479e-12L18.0282 0Z" transform="matrix(1 0 0 -1 108.169014 9.014085)" id="Path-Copy-14" fill="#AFCDB4" fill-rule="evenodd" stroke="none" />
      <path d="M18.0282 0L9.01408 9.01408L0 2.34479e-12L18.0282 0Z" transform="matrix(1 0 0 -1 288.4507 9.014085)" id="Path-Copy-6" fill="#AFCDB4" fill-rule="evenodd" stroke="none" />
      <path d="M18.0282 0L9.01408 9.01408L0 2.34479e-12L18.0282 0Z" transform="matrix(1 0 0 -1 2.846619E-13 9.014085)" id="Path-Copy-29" fill="#AFCDB4" fill-rule="evenodd" stroke="none" />
      <path d="M18.0282 0L9.01408 9.01408L0 2.34479e-12L18.0282 0Z" transform="matrix(1 0 0 -1 144.22536 9.014085)" id="Path-Copy-15" fill="#AFCDB4" fill-rule="evenodd" stroke="none" />
      <path d="M18.0282 0L9.01408 9.01408L0 2.34479e-12L18.0282 0Z" transform="matrix(1 0 0 -1 324.50705 9.014085)" id="Path-Copy-8" fill="#AFCDB4" fill-rule="evenodd" stroke="none" />
      <path d="M18.0282 0L9.01408 9.01408L0 2.34479e-12L18.0282 0Z" transform="matrix(1 0 0 -1 36.05634 9.014085)" id="Path-Copy-31" fill="#AFCDB4" fill-rule="evenodd" stroke="none" />
      <path d="M18.0282 0L9.01408 9.01408L0 2.34479e-12L18.0282 0Z" transform="matrix(1 0 0 -1 180.2817 9.014085)" id="Path-Copy-16" fill="#AFCDB4" fill-rule="evenodd" stroke="none" />
    </g>
    <path d="M18.0282 0L9.01408 9.01408L0 2.34479e-12L18.0282 0Z" transform="translate(1171.8309 1.5007825)" id="Path-Copy-3" fill="#AFCDB4" fill-rule="evenodd" stroke="none" />
    <path d="M18.0282 0L9.01408 9.01408L0 2.34479e-12L18.0282 0Z" transform="translate(883.3803 1.5007825)" id="Path-Copy-19" fill="#AFCDB4" fill-rule="evenodd" stroke="none" />
    <path d="M18.0282 0L9.01408 9.01408L0 2.34479e-12L18.0282 0Z" transform="translate(594.92957 1.5007825)" id="Path-Copy-35" fill="#AFCDB4" fill-rule="evenodd" stroke="none" />
    <path d="M18.0282 0L9.01408 9.01408L0 2.34479e-12L18.0282 0Z" transform="translate(1027.6056 1.5007825)" id="Path-Copy-10" fill="#AFCDB4" fill-rule="evenodd" stroke="none" />
    <path d="M18.0282 0L9.01408 9.01408L0 2.34479e-12L18.0282 0Z" transform="translate(739.1549 1.5007825)" id="Path-Copy-20" fill="#AFCDB4" fill-rule="evenodd" stroke="none" />
    <path d="M18.0282 0L9.01408 9.01408L0 2.34479e-12L18.0282 0Z" transform="translate(450.70422 1.5007825)" id="Path-Copy-36" fill="#AFCDB4" fill-rule="evenodd" stroke="none" />
    <path d="M18.0282 0L9.01408 9.01408L0 2.34479e-12L18.0282 0Z" transform="translate(378.59155 1.5007825)" id="Path-Copy-50" fill="#AFCDB4" fill-rule="evenodd" stroke="none" />
    <path d="M18.0282 0L9.01408 9.01408L0 2.34479e-12L18.0282 0Z" transform="translate(1207.8873 1.5007825)" id="Path-Copy-5" fill="#AFCDB4" fill-rule="evenodd" stroke="none" />
    <path d="M18.0282 0L9.01408 9.01408L0 2.34479e-12L18.0282 0Z" transform="translate(919.43665 1.5007825)" id="Path-Copy-21" fill="#AFCDB4" fill-rule="evenodd" stroke="none" />
    <path d="M18.0282 0L9.01408 9.01408L0 2.34479e-12L18.0282 0Z" transform="translate(630.9859 1.5007825)" id="Path-Copy-37" fill="#AFCDB4" fill-rule="evenodd" stroke="none" />
    <path d="M18.0282 0L9.01408 9.01408L0 2.34479e-12L18.0282 0Z" transform="translate(1063.662 1.5007825)" id="Path-Copy-11" fill="#AFCDB4" fill-rule="evenodd" stroke="none" />
    <path d="M18.0282 0L9.01408 9.01408L0 2.34479e-12L18.0282 0Z" transform="translate(775.21124 1.5007825)" id="Path-Copy-22" fill="#AFCDB4" fill-rule="evenodd" stroke="none" />
    <path d="M18.0282 0L9.01408 9.01408L0 2.34579e-12L18.0282 0Z" transform="translate(486.76056 1.5007825)" id="Path-Copy-38" fill="#AFCDB4" fill-rule="evenodd" stroke="none" />
    <path d="M18.0282 0L9.01408 9.01408L0 2.34479e-12L18.0282 0Z" transform="translate(1243.9436 1.5007825)" id="Path-Copy-7" fill="#AFCDB4" fill-rule="evenodd" stroke="none" />
    <path d="M18.0282 0L9.01408 9.01408L0 2.34479e-12L18.0282 0Z" transform="translate(955.493 1.5007825)" id="Path-Copy-23" fill="#AFCDB4" fill-rule="evenodd" stroke="none" />
    <path d="M18.0282 0L9.01408 9.01408L0 2.34479e-12L18.0282 0Z" transform="translate(667.04224 1.5007825)" id="Path-Copy-39" fill="#AFCDB4" fill-rule="evenodd" stroke="none" />
    <path d="M18.0282 0L9.01408 9.01408L0 2.34479e-12L18.0282 0Z" transform="translate(1099.7183 1.5007825)" id="Path-Copy-12" fill="#AFCDB4" fill-rule="evenodd" stroke="none" />
    <path d="M18.0282 0L9.01408 9.01408L0 2.34479e-12L18.0282 0Z" transform="translate(811.2676 1.5007825)" id="Path-Copy-24" fill="#AFCDB4" fill-rule="evenodd" stroke="none" />
    <path d="M18.0282 0L9.01408 9.01408L0 2.34479e-12L18.0282 0Z" transform="translate(522.8169 1.5007825)" id="Path-Copy-40" fill="#AFCDB4" fill-rule="evenodd" stroke="none" />
    <path d="M18.0282 0L9.01408 9.01408L0 2.34479e-12L18.0282 0Z" transform="translate(1153.8029 1.5007825)" id="Path-Copy-2" fill="#AFCDB4" fill-rule="evenodd" stroke="none" />
    <path d="M18.0282 0L9.01408 9.01408L0 2.34479e-12L18.0282 0Z" transform="translate(865.3521 1.5007825)" id="Path-Copy-25" fill="#AFCDB4" fill-rule="evenodd" stroke="none" />
    <path d="M18.0282 0L9.01408 9.01408L0 2.34479e-12L18.0282 0Z" transform="translate(576.9014 1.5007825)" id="Path-Copy-41" fill="#AFCDB4" fill-rule="evenodd" stroke="none" />
    <path d="M18.0282 0L9.01408 9.01408L0 2.34479e-12L18.0282 0Z" transform="translate(1009.57745 1.5007825)" id="Path-Copy-13" fill="#AFCDB4" fill-rule="evenodd" stroke="none" />
    <path d="M18.0282 0L9.01408 9.01408L0 2.34479e-12L18.0282 0Z" transform="translate(721.1268 1.5007825)" id="Path-Copy-26" fill="#AFCDB4" fill-rule="evenodd" stroke="none" />
    <path d="M18.0282 0L9.01408 9.01408L0 2.34479e-12L18.0282 0Z" transform="translate(432.67606 1.5007825)" id="Path-Copy-42" fill="#AFCDB4" fill-rule="evenodd" stroke="none" />
    <path d="M18.0282 0L9.01408 9.01408L0 2.34479e-12L18.0282 0Z" transform="translate(360.5634 1.5007825)" id="Path-Copy-51" fill="#AFCDB4" fill-rule="evenodd" stroke="none" />
    <path d="M18.0282 0L9.01408 9.01408L0 2.34479e-12L18.0282 0Z" transform="translate(1189.8591 1.5007825)" id="Path-Copy-4" fill="#AFCDB4" fill-rule="evenodd" stroke="none" />
    <path d="M18.0282 0L9.01408 9.01408L0 2.34479e-12L18.0282 0Z" transform="translate(901.40845 1.5007825)" id="Path-Copy-27" fill="#AFCDB4" fill-rule="evenodd" stroke="none" />
    <path d="M18.0282 0L9.01408 9.01408L0 2.34479e-12L18.0282 0Z" transform="translate(612.95776 1.5007825)" id="Path-Copy-43" fill="#AFCDB4" fill-rule="evenodd" stroke="none" />
    <path d="M18.0282 0L9.01408 9.01408L0 2.34479e-12L18.0282 0Z" transform="translate(1045.6338 1.5007825)" id="Path-Copy-14" fill="#AFCDB4" fill-rule="evenodd" stroke="none" />
    <path d="M18.0282 0L9.01408 9.01408L0 2.34479e-12L18.0282 0Z" transform="translate(757.1831 1.5007825)" id="Path-Copy-28" fill="#AFCDB4" fill-rule="evenodd" stroke="none" />
    <path d="M18.0282 0L9.01408 9.01408L0 2.34479e-12L18.0282 0Z" transform="translate(468.7324 1.5007825)" id="Path-Copy-44" fill="#AFCDB4" fill-rule="evenodd" stroke="none" />
    <path d="M18.0282 0L9.01408 9.01408L0 2.34479e-12L18.0282 0Z" transform="translate(396.61972 1.5007825)" id="Path-Copy-52" fill="#AFCDB4" fill-rule="evenodd" stroke="none" />
    <path d="M18.0282 0L9.01408 9.01408L0 2.34479e-12L18.0282 0Z" transform="translate(1225.9155 1.5007825)" id="Path-Copy-6" fill="#AFCDB4" fill-rule="evenodd" stroke="none" />
    <path d="M18.0282 0L9.01408 9.01408L0 2.34479e-12L18.0282 0Z" transform="translate(937.4648 1.5007825)" id="Path-Copy-29" fill="#AFCDB4" fill-rule="evenodd" stroke="none" />
    <path d="M18.0282 0L9.01408 9.01408L0 2.34479e-12L18.0282 0Z" transform="translate(649.0141 1.5007825)" id="Path-Copy-45" fill="#AFCDB4" fill-rule="evenodd" stroke="none" />
    <path d="M18.0282 0L9.01408 9.01408L0 2.34479e-12L18.0282 0Z" transform="translate(1081.6902 1.5007825)" id="Path-Copy-15" fill="#AFCDB4" fill-rule="evenodd" stroke="none" />
    <path d="M18.0282 0L9.01408 9.01408L0 2.34479e-12L18.0282 0Z" transform="translate(793.23944 1.5007825)" id="Path-Copy-30" fill="#AFCDB4" fill-rule="evenodd" stroke="none" />
    <path d="M18.0282 0L9.01408 9.01408L0 2.34479e-12L18.0282 0Z" transform="translate(504.78873 1.5007825)" id="Path-Copy-46" fill="#AFCDB4" fill-rule="evenodd" stroke="none" />
    <path d="M18.0282 0L9.01408 9.01408L0 2.34479e-12L18.0282 0Z" transform="translate(1261.9718 1.5007825)" id="Path-Copy-8" fill="#AFCDB4" fill-rule="evenodd" stroke="none" />
    <path d="M18.0282 0L9.01408 9.01408L0 2.34479e-12L18.0282 0Z" transform="translate(973.5211 1.5007825)" id="Path-Copy-31" fill="#AFCDB4" fill-rule="evenodd" stroke="none" />
    <path d="M18.0282 0L9.01408 9.01408L0 2.34579e-12L18.0282 0Z" transform="translate(685.07043 1.5007825)" id="Path-Copy-47" fill="#AFCDB4" fill-rule="evenodd" stroke="none" />
    <path d="M18.0282 0L9.01408 9.01408L0 2.34479e-12L18.0282 0Z" transform="translate(1117.7465 1.5007825)" id="Path-Copy-16" fill="#AFCDB4" fill-rule="evenodd" stroke="none" />
    <path d="M18.0282 0L9.01408 9.01408L0 2.34479e-12L18.0282 0Z" transform="translate(829.2958 1.5007825)" id="Path-Copy-32" fill="#AFCDB4" fill-rule="evenodd" stroke="none" />
    <path d="M18.0282 0L9.01408 9.01408L0 2.34479e-12L18.0282 0Z" transform="translate(540.8451 1.5007825)" id="Path-Copy-48" fill="#AFCDB4" fill-rule="evenodd" stroke="none" />
  </g>
</svg>